<svg fill="none" height="512" width="512" xmlns="http://www.w3.org/2000/svg" xmlns:xlink="http://www.w3.org/1999/xlink"><linearGradient id="a" gradientUnits="userSpaceOnUse" x1="254.65" x2="254.65" y1="45.55" y2="469.514"><stop offset="0" stop-color="#700"/><stop offset="1" stop-color="#1e1e1e"/></linearGradient><path d="m188.95 85.15h278.55v51.75h-278.55zm197.1 18.9h54.45v301.5c0 31.05-6.75 45.45-26.1 54.45-19.35 8.1-49.95 9.9-91.8 9.45-2.25-15.3-10.8-39.6-18.45-54.9 29.7 1.35 60.75 1.35 70.2.9 9 0 11.7-2.25 11.7-10.8zm-191.7 81.45h50.4v193.5h-50.4zm22.05 0h128.25v163.8h-128.25v-46.35h78.3v-70.65h-78.3zm-73.8-139.95 50.4 16.2c-27.9 76.05-74.25 156.6-122.85 207-4.5-12.6-19.35-42.75-28.35-55.8 40.05-40.05 78.3-103.95 100.8-167.4zm-40.5 126.45 53.55-53.55v349.65h-53.55z" fill="url(#a)"/><path clip-rule="evenodd" d="m220.216 60.15 5.222-14.233-98.29-31.594-8.11 22.871c-21.518 60.68-57.998 121.162-94.916 158.079l-14.726 14.726 11.824 17.144c7.623 11.054 21.53 39.215 25.386 50.015l13.559 37.963 16.935-17.562v195.541h103.55v-89.1h89.1v-2.348l12.039 24.078c6.849 13.697 14.321 35.415 16.077 47.357l3.108 21.132 21.357.23c40.974.44 76.838-.971 101.722-11.388l.449-.188.441-.205c13.79-6.414 25.221-15.965 32.327-30.859 6.521-13.668 8.23-29.515 8.23-46.259v-243.65h27v-101.75zm-31.266 25v51.75h197.1v267.75c0 8.55-2.7 10.8-11.7 10.8-6.458.308-23.004.405-42.314.005-8.945-.186-18.483-.478-27.886-.905 3.566 7.132 7.327 16.219 10.555 25.439 3.697 10.559 6.694 21.293 7.895 29.461 41.85.45 72.45-1.35 91.8-9.45 19.35-9 26.1-23.4 26.1-54.45v-268.65h27v-51.75zm-8.3 7.753c1.1-2.585 2.181-5.17 3.244-7.753l.024-.06a665.181 665.181 0 0 0 5.032-12.602c1.39-3.587 2.74-7.168 4.05-10.738l-50.4-16.2c-11.897 33.55-28.197 67.225-46.839 97.434a483.54 483.54 0 0 1 -8.855 13.822 447.478 447.478 0 0 1 -9.806 14.153c-11.35 15.716-23.243 29.934-35.3 41.991 4.908 7.117 11.556 19.319 17.317 30.988 4.802 9.727 8.987 19.083 11.033 24.812a343.849 343.849 0 0 0 6.95-7.428 392.716 392.716 0 0 0 11.549-13.312 460.56 460.56 0 0 0 13.451-17.028v237.118h53.55v-322.556a717.886 717.886 0 0 0 8.3-16.29l.826-1.678a741.993 741.993 0 0 0 4.396-9.126 708.001 708.001 0 0 0 11.478-25.547zm13.7 286.097h50.4v-29.7h99.9v-163.8h-150.3zm50.4-76.05h49.95v-70.65h-49.95zm116.3 71.35h-91.3v13.661l35.535 1.615c20.865.948 42.192 1.206 55.765 1.131zm-.013 30.844.005-.078a.632.632 0 0 1 -.005.078z" fill="#fff" fill-rule="evenodd"/></svg>