<svg xmlns="http://www.w3.org/2000/svg" width="512" height="512" fill="none">
    <linearGradient id="a" x1="254.7" x2="254.7" y1="45.5" y2="469.5" gradientUnits="userSpaceOnUse">
        <stop offset="0" stop-color="#700" />
        <stop offset="1" stop-color="#1e1e1e" />
    </linearGradient>
    <path fill="url(#a)" d="M189 85.2h278.5v51.7H189zM386 104h54.5v301.5c0 31-6.8 45.4-26.1 54.4-19.4 8.1-50 9.9-91.8 9.5a219 219 0 0 0-18.5-55 1017 1017 0 0 0 70.2 1c9 0 11.7-2.3 11.7-10.9zm-191.7 81.4h50.4V379h-50.4zm22.1 0h128.2v163.8H216.5V303h78.3v-70.7h-78.3zm-73.8-140L193 61.9c-27.9 76-74.3 156.6-122.9 207A343 343 0 0 0 41.8 213c40-40 78.3-103.9 100.8-167.4M102.1 172l53.5-53.5V468h-53.5z" />
    <path fill="#fff" fill-rule="evenodd" d="m220.2 60.2 5.2-14.3-98.3-31.6-8 22.9c-21.6 60.7-58 121.2-95 158L9.4 210l11.8 17.1a327 327 0 0 1 25.4 50l13.6 38L77 297.6V493h103.6v-89h89v-2.3l12 24a196 196 0 0 1 16.2 47.4l3 21.1 21.4.2c41 .5 76.9-1 101.8-11.3l.4-.2.4-.2a64 64 0 0 0 32.4-30.9 107 107 0 0 0 8.2-46.2V161.9h27V60.2zm-31.2 25v51.7h197v267.8c0 8.5-2.6 10.7-11.6 10.7a1148 1148 0 0 1-70.2-.9 227 227 0 0 1 18.4 55c41.8.4 72.4-1.4 91.8-9.5 19.4-9 26.1-23.4 26.1-54.4V136.9h27V85.2zm-8.3 7.7 3.2-7.7V85l5-12.6 4.1-10.7-50.4-16.2A519 519 0 0 1 95.8 143l-8.9 13.8-9.8 14.2a347 347 0 0 1-35.3 42c5 7 11.6 19.3 17.3 31 4.8 9.7 9 19 11 24.7l7-7.4L88.6 248a461 461 0 0 0 13.5-17v237h53.6V145.5l8.3-16.2.8-1.7 4.4-9.1a708 708 0 0 0 11.5-25.6M194.4 379h50.3v-29.7h100V185.5H194.2zm50.3-76h50v-70.7h-50zm116.4 71.3h-91.4V388l35.6 1.6c20.8 1 42.2 1.2 55.7 1.1zm0 30.8" clip-rule="evenodd" />
</svg>